<mxfile host="app.diagrams.net" modified="2024-01-30T12:59:39.299Z" agent="Mozilla/5.0 (Windows NT 10.0; Win64; x64) AppleWebKit/537.36 (KHTML, like Gecko) Chrome/120.0.0.0 Safari/537.36 Edg/120.0.0.0" etag="JezVPczV2ZZhF6XiLNrg" version="23.0.2" type="github">
  <diagram name="PÃ¡gina-1" id="7gKwKQrtvb1lTxvk-Pge">
    <mxGraphModel dx="1002" dy="569" grid="1" gridSize="10" guides="1" tooltips="1" connect="1" arrows="1" fold="1" page="1" pageScale="1" pageWidth="827" pageHeight="1169" math="0" shadow="0">
      <root>
        <mxCell id="0" />
        <mxCell id="1" parent="0" />
        <mxCell id="id7rWQj4m-Agmfali30w-1" value="On-Premise" style="rounded=0;whiteSpace=wrap;html=1;fontFamily=Verdana;fontSize=19;labelPosition=center;verticalLabelPosition=top;align=center;verticalAlign=bottom;dashed=1;" vertex="1" parent="1">
          <mxGeometry x="50" y="110" width="137" height="530" as="geometry" />
        </mxCell>
        <mxCell id="id7rWQj4m-Agmfali30w-2" value="Azure Cloud" style="rounded=0;whiteSpace=wrap;html=1;fontFamily=Verdana;fontSize=19;labelPosition=center;verticalLabelPosition=top;align=right;verticalAlign=bottom;fontColor=#00bef2;dashed=1;" vertex="1" parent="1">
          <mxGeometry x="200" y="110" width="500" height="530" as="geometry" />
        </mxCell>
      </root>
    </mxGraphModel>
  </diagram>
</mxfile>
